<?xml version="1.0" standalone="no"?>
<!DOCTYPE svg PUBLIC "-//W3C//DTD SVG 20010904//EN"
 "http://www.w3.org/TR/2001/REC-SVG-20010904/DTD/svg10.dtd">
<svg version="1.0" xmlns="http://www.w3.org/2000/svg"
 width="60.000000pt" height="60.000000pt" viewBox="0 0 500.000000 500.000000"
 preserveAspectRatio="xMidYMid meet">

<g transform="translate(0.000000,500.000000) scale(0.100000,-0.100000)"
fill="#000000" stroke="none">
<path d="M2388 3966 c-78 -21 -121 -59 -163 -140 -28 -56 -39 -92 -46 -156
-13 -115 4 -170 74 -247 169 -184 197 -248 204 -475 3 -86 3 -164 -1 -173 -5
-15 -8 -15 -28 -1 -29 21 -48 21 -22 0 18 -14 18 -15 -4 -4 -12 6 -20 15 -17
20 7 12 -21 27 -108 56 -78 27 -91 29 -82 14 8 -13 5 -13 -42 4 -63 22 -146
63 -173 86 -14 11 14 0 63 -26 48 -25 92 -44 99 -42 6 2 -7 12 -31 21 -24 10
-71 37 -105 60 -33 23 -66 40 -72 39 -7 -1 -15 6 -18 15 -6 14 -4 15 5 6 16
-16 99 81 141 165 80 162 26 378 -117 467 -46 28 -54 30 -154 30 -89 0 -112
-4 -146 -22 -64 -33 -119 -100 -143 -173 -19 -56 -21 -71 -11 -124 28 -157 57
-223 130 -294 31 -30 121 -72 156 -72 27 0 7 11 -37 21 -99 22 -187 121 -214
239 -24 102 -21 136 24 225 22 44 40 82 40 84 0 3 -13 -8 -30 -24 -47 -45 -35
-14 15 39 63 65 121 90 215 90 121 1 191 -45 250 -163 25 -50 50 -139 50 -179
0 -47 -29 -125 -65 -177 -55 -79 -116 -117 -187 -116 -28 0 -22 -13 34 -74 62
-68 148 -128 207 -146 l44 -13 -39 -34 c-60 -53 -188 -111 -274 -125 l-25 -4
27 -2 c14 0 54 8 87 18 34 10 61 17 61 15 0 -18 -151 -56 -216 -53 -28 2 -28
2 6 10 22 5 -1 6 -62 3 l-97 -5 -11 43 c-21 82 -31 106 -62 152 -60 92 -181
130 -317 101 -71 -16 -80 -21 -132 -74 -45 -46 -61 -71 -79 -126 -19 -57 -21
-74 -11 -100 6 -17 11 -46 11 -64 0 -17 7 -47 15 -67 12 -30 12 -36 0 -40 -8
-3 -20 -3 -27 1 -7 4 -6 1 3 -7 25 -21 49 -75 33 -75 -7 0 -10 5 -7 10 3 6 1
7 -6 3 -6 -4 -9 -11 -6 -16 3 -5 1 -11 -5 -15 -6 -4 -8 -11 -5 -16 4 -5 2 -9
-4 -9 -11 0 -9 -19 3 -39 5 -8 4 -16 -4 -21 -6 -4 -12 -11 -11 -16 0 -5 -6 -8
-14 -8 -14 2 6 -32 50 -85 l20 -24 -25 16 c-35 24 -55 22 -30 -3 11 -11 20
-29 20 -39 0 -11 5 -23 10 -26 16 -10 1 -25 -18 -18 -13 5 -14 3 -5 -7 6 -7 9
-19 6 -26 -3 -8 0 -14 5 -14 6 0 21 -14 33 -31 l22 -32 -27 18 c-25 17 -26 17
-23 -1 1 -11 6 -25 10 -31 5 -7 5 -13 1 -13 -3 0 1 -11 10 -25 9 -14 13 -25 9
-24 -18 3 -36 -1 -30 -7 3 -4 1 -16 -5 -28 -6 -11 -7 -18 -2 -13 13 12 32 -45
20 -59 -6 -7 -15 -9 -21 -6 -5 3 -3 -3 5 -13 12 -15 12 -17 1 -10 -11 6 -13 3
-9 -13 4 -12 2 -22 -2 -22 -5 0 -7 -9 -5 -20 3 -17 1 -19 -16 -10 -10 6 -19 8
-19 5 0 -12 30 -36 38 -31 5 3 9 -1 9 -8 0 -9 -7 -12 -16 -9 -13 5 -14 3 -4
-8 18 -18 16 -30 -2 -23 -12 5 -14 2 -7 -17 16 -41 5 -49 -66 -50 -89 0 -54
-14 58 -22 47 -4 139 -14 206 -24 66 -9 128 -14 137 -10 10 4 17 17 17 35 0
15 6 37 14 47 12 17 19 17 86 6 40 -6 77 -14 82 -17 4 -3 8 -27 8 -54 0 -35 5
-55 18 -67 12 -12 20 -35 21 -67 1 -27 10 -63 19 -80 9 -17 15 -34 14 -39 -3
-11 48 -29 86 -29 20 0 42 8 55 20 12 11 29 22 37 24 8 2 18 10 22 18 5 11 7
9 7 -6 1 -21 47 -64 83 -77 9 -3 22 0 28 8 8 10 3 21 -22 47 -18 19 -39 37
-47 39 -11 4 -10 13 7 45 16 32 18 42 8 57 -14 18 -28 13 -20 -8 3 -7 0 -16
-7 -21 -8 -5 -10 -3 -4 5 8 15 -63 93 -77 85 -13 -8 12 -35 26 -27 7 4 6 1 -1
-7 -10 -11 -16 -10 -33 5 -16 14 -18 20 -8 27 19 12 -13 34 -60 41 -27 5 -53
22 -95 62 -48 45 -62 53 -77 45 -27 -15 -150 -13 -150 2 0 7 11 48 24 92 14
45 43 151 66 236 42 159 87 290 98 290 4 0 7 20 7 45 0 40 -2 45 -27 50 l-28
7 24 31 c35 46 74 135 82 184 3 24 9 43 13 43 3 -1 33 -7 66 -15 77 -19 126
-19 215 0 88 18 194 70 277 136 34 27 72 49 83 49 32 0 146 -49 168 -73 37
-42 45 -91 38 -236 -10 -189 -48 -361 -78 -353 -49 13 -52 13 -33 -8 17 -19
17 -20 -6 -28 -13 -5 -54 -13 -92 -16 -76 -9 -80 -12 -155 -141 -22 -38 -66
-95 -97 -125 -62 -61 -99 -113 -93 -132 3 -8 10 -3 17 12 14 26 130 139 144
140 13 0 -26 -50 -77 -100 -60 -58 -60 -71 0 -17 60 54 131 155 92 131 -7 -4
-8 -3 -4 4 4 7 13 12 19 13 7 0 26 28 42 62 17 33 41 74 53 89 13 15 18 28 12
28 -14 0 -47 -39 -72 -84 -9 -17 -17 -26 -18 -20 0 14 53 96 73 113 9 7 24 10
33 7 9 -4 23 -1 30 5 8 6 25 8 39 5 37 -9 213 52 198 69 -5 4 -2 5 4 1 17 -9
85 10 156 45 58 28 127 39 127 19 0 -5 -12 -10 -28 -10 -15 0 -52 -9 -82 -21
-30 -11 -77 -28 -105 -36 -56 -17 -80 -33 -68 -43 15 -13 105 -31 125 -24 16
5 18 8 7 15 -11 7 -9 9 6 10 11 1 30 3 41 4 12 1 34 -4 50 -11 28 -13 27 -13
-21 -10 -27 2 -39 1 -25 -1 13 -3 36 -13 51 -24 15 -10 32 -19 38 -19 6 0 11
-4 11 -8 0 -5 6 -9 13 -9 16 -1 138 -24 157 -31 8 -2 26 -6 40 -8 14 -2 26 -8
28 -14 2 -5 8 -8 13 -4 5 3 9 0 9 -6 0 -6 4 -9 8 -6 13 8 113 -42 137 -68 23
-25 65 -43 65 -28 0 5 -3 12 -7 16 -4 4 -8 24 -9 44 -2 79 -16 217 -23 232 -4
8 -7 36 -6 62 l1 47 -33 -29 c-59 -52 -173 -58 -325 -16 -97 27 -159 29 -180
8 -44 -44 -70 27 -71 196 -1 159 34 253 125 331 l37 32 47 -36 c147 -113 389
-174 533 -135 24 6 45 9 48 7 2 -3 11 -31 20 -63 17 -66 46 -129 75 -160 l19
-22 -88 -12 c-97 -14 -113 -21 -106 -50 3 -11 1 -20 -5 -20 -6 0 -4 -15 4 -37
7 -21 17 -37 23 -36 11 3 11 1 37 -107 9 -41 19 -70 21 -64 4 12 -16 110 -43
208 -9 32 -12 62 -7 67 5 5 51 17 103 28 52 11 113 26 135 32 22 7 45 13 50
14 56 8 94 19 89 26 -3 5 1 6 9 3 8 -3 41 1 73 9 108 27 122 28 126 9 5 -28
68 110 74 164 7 61 -17 170 -50 222 -36 58 -90 100 -151 118 -74 21 -92 13
-21 -9 63 -20 140 -89 170 -151 42 -89 42 -193 0 -282 -13 -28 -21 -32 -67
-38 -116 -14 -137 -19 -131 -27 3 -5 -2 -6 -11 -2 -12 4 -13 8 -5 13 8 5 9 17
2 42 -9 32 -7 35 19 47 15 7 46 30 68 53 36 35 41 46 41 85 0 109 -116 213
-193 175 -22 -11 -22 -11 3 -10 53 3 71 -3 106 -34 43 -38 64 -82 64 -134 0
-39 -35 -80 -92 -110 -29 -15 -29 -15 -26 13 2 17 13 34 30 45 30 19 64 65 55
74 -3 4 -20 -10 -37 -30 -18 -20 -36 -36 -40 -36 -4 0 -17 27 -29 60 -12 33
-28 60 -36 60 -11 0 -11 -4 0 -27 7 -16 17 -45 20 -65 7 -35 5 -38 -17 -38
-13 0 -34 7 -46 16 -30 21 -38 13 -12 -11 12 -11 36 -19 55 -19 19 0 35 -4 35
-8 0 -4 -4 -8 -8 -8 -5 0 -5 -21 -1 -47 17 -107 18 -106 -63 -130 -40 -12 -81
-25 -90 -28 -36 -14 -101 91 -120 194 -10 53 -8 61 26 143 20 48 36 89 36 92
0 3 -8 3 -17 -1 -13 -4 -12 -1 4 11 12 9 19 23 17 34 -7 23 35 62 89 84 23 9
34 17 24 17 -23 1 -75 -25 -105 -53 -33 -29 -80 -133 -88 -193 -5 -45 -9 -51
-39 -62 -38 -13 -211 6 -311 35 -70 20 -188 77 -227 110 -42 35 -24 29 56 -19
40 -24 99 -53 132 -65 66 -24 201 -53 237 -51 13 1 -15 9 -62 19 -141 28 -276
80 -340 130 -23 17 -24 21 -11 42 13 21 13 22 -3 9 -9 -8 -33 -15 -53 -17
l-36 -3 29 18 c17 11 32 14 35 8 4 -5 9 -5 13 2 4 6 31 22 61 36 29 14 61 38
71 53 10 15 44 54 76 88 l58 61 57 -28 c32 -15 82 -30 110 -33 46 -4 58 -1 91
24 70 50 125 135 156 239 21 72 20 125 -4 203 -35 115 -96 175 -203 204 -68
18 -96 17 -36 -2 153 -47 251 -188 234 -339 -8 -74 -58 -188 -101 -230 -44
-42 -115 -85 -141 -85 -35 0 -130 39 -163 67 -17 13 -30 21 -30 17 0 -4 -15 7
-34 25 -46 44 -76 117 -83 200 -5 61 -3 72 30 141 20 41 33 77 31 79 -3 3 -16
-8 -30 -24 -37 -43 -22 -6 22 54 34 49 83 83 144 102 23 7 23 7 3 8 -66 3
-150 -66 -194 -158 -59 -126 -33 -298 63 -406 l31 -36 -62 -63 c-34 -34 -59
-65 -55 -68 3 -4 -29 -32 -71 -63 -42 -31 -79 -55 -81 -52 -3 3 26 27 65 53
38 27 68 50 67 52 -7 6 -186 -120 -201 -141 -8 -12 -15 -17 -15 -12 -1 6 -15
-6 -32 -25 -17 -19 -27 -28 -23 -20 6 10 1 8 -13 -4 -22 -19 -22 -19 -22 10 0
31 26 276 35 334 7 45 -5 20 -20 -45 -11 -41 -13 -45 -14 -19 -1 17 6 55 15
85 9 30 16 66 16 82 0 15 3 25 9 22 5 -3 6 0 3 8 -7 19 38 108 65 127 12 8 21
21 21 29 0 8 3 12 6 8 21 -20 95 130 93 188 l-1 30 -10 -30 c-6 -16 -33 -62
-60 -102 -38 -55 -59 -76 -91 -89 -23 -10 -48 -18 -55 -19 -18 0 -29 -22 -45
-84 l-13 -51 -52 76 c-42 60 -57 74 -72 69 -42 -13 -153 66 -181 130 -22 51
-34 131 -22 148 5 6 15 32 22 57 7 25 28 73 46 107 33 60 25 80 -10 26 -9 -13
-19 -22 -22 -19 -11 10 60 87 105 114 41 24 57 27 132 27 70 0 93 -5 134 -25
60 -31 110 -87 135 -154 11 -28 20 -44 20 -36 1 20 -43 110 -66 135 -73 82
-201 120 -305 91z m354 -538 c-7 -7 -12 -8 -12 -2 0 6 3 14 7 17 3 4 9 5 12 2
2 -3 -1 -11 -7 -17z m-62 -57 c0 -6 -13 -17 -28 -26 -16 -10 -40 -36 -55 -60
-29 -46 -36 -72 -10 -40 l16 20 -8 -20 c-4 -11 -18 -49 -31 -85 -12 -36 -23
-55 -23 -44 -1 12 6 41 14 64 18 50 18 53 5 45 -17 -10 -12 5 22 66 21 37 44
64 63 74 36 18 35 17 35 6z m-280 -66 c12 -19 20 -40 18 -46 -2 -6 -12 7 -22
29 -10 22 -27 42 -37 45 -11 3 -19 10 -19 16 0 21 37 -7 60 -44z m41 -17 c11
-21 11 -22 -4 -9 -10 7 -17 17 -17 22 0 15 9 10 21 -13z m8 -103 c0 -5 -6 1
-14 15 -8 14 -14 30 -14 35 0 6 6 -1 14 -15 8 -14 14 -29 14 -35z m8 -37 c-3
-8 -6 -5 -6 6 -1 11 2 17 5 13 3 -3 4 -12 1 -19z m25 -183 l6 -130 -13 115
c-16 138 -17 194 -6 165 5 -11 11 -78 13 -150z m493 45 c-33 -33 -64 -60 -70
-60 -12 0 107 119 120 120 5 0 -17 -27 -50 -60z m-971 -106 c45 -30 83 -49
107 -51 38 -4 136 -44 237 -97 88 -45 54 -38 -43 10 -91 44 -111 51 -101 35 6
-9 -77 -91 -91 -91 -5 1 8 15 28 33 44 39 67 77 46 77 -7 0 -18 -5 -25 -12 -8
-8 -12 -8 -12 -1 0 6 -14 13 -30 17 -17 3 -54 23 -83 44 -28 21 -63 45 -77 52
-31 15 -110 91 -110 104 0 6 19 -8 43 -31 23 -22 73 -62 111 -89z m-588 -15
c51 -25 119 -102 110 -125 -3 -7 6 -46 19 -86 14 -40 25 -87 25 -105 0 -67
-71 -207 -117 -232 -12 -6 -53 -5 -118 4 -83 11 -116 21 -197 60 -53 26 -101
45 -105 42 -4 -3 -9 7 -9 21 -1 15 -7 57 -14 94 -12 60 -11 73 5 115 10 27 31
67 47 90 38 56 35 64 -8 22 l-36 -34 15 30 c21 41 91 96 152 118 68 24 165 18
231 -14z m1148 -91 c-4 -62 -8 -115 -10 -117 -6 -7 -4 151 2 192 11 65 14 40
8 -75z m-57 60 c-3 -8 -6 -5 -6 6 -1 11 2 17 5 13 3 -3 4 -12 1 -19z m-177
-43 c14 -8 21 -14 15 -14 -5 0 -21 6 -35 14 -14 8 -20 14 -15 14 6 0 21 -6 35
-14z m395 5 c-3 -5 -16 -15 -28 -21 -21 -10 -21 -9 2 10 25 23 36 27 26 11z
m-35 -48 c-14 -9 -42 -32 -62 -51 -21 -18 -38 -30 -38 -27 0 4 14 19 30 33 17
13 28 29 25 33 -3 5 0 12 6 16 8 4 9 3 5 -4 -10 -16 5 -14 28 3 11 8 22 15 25
14 3 0 -5 -8 -19 -17z m142 -65 c77 -51 195 -103 253 -111 22 -3 67 -13 100
-21 l60 -15 -82 5 c-81 5 -182 30 -194 48 -4 5 -12 6 -19 2 -9 -6 -11 -4 -6 4
5 8 3 11 -6 9 -40 -9 -198 106 -198 144 0 7 5 5 13 -4 6 -9 42 -37 79 -61z
m-357 13 c-12 -24 -14 -35 -5 -40 6 -4 10 -23 8 -46 l-4 -39 -12 29 c-7 16
-21 41 -32 56 -22 32 -25 40 -10 40 6 0 9 -3 9 -7 -5 -31 32 -5 45 31 3 10 9
16 12 13 3 -3 -2 -20 -11 -37z m235 17 c-14 -12 -37 -31 -51 -42 -15 -12 -37
-41 -49 -65 -13 -25 -26 -47 -31 -50 -5 -3 -18 -51 -28 -105 -17 -82 -18 -113
-10 -170 20 -150 22 -165 16 -165 -3 0 -15 40 -26 89 -18 77 -20 98 -10 167 5
43 12 93 13 110 4 35 73 174 87 174 5 0 9 6 9 13 0 12 77 67 95 67 6 -1 -1
-11 -15 -23z m-120 -60 c0 -10 -39 -80 -40 -71 0 20 22 74 31 74 5 0 9 -1 9
-3z m-113 -244 c-2 -16 -4 -3 -4 27 0 30 2 43 4 28 2 -16 2 -40 0 -55z m-20
-135 c-3 -8 -6 -5 -6 6 -1 11 2 17 5 13 3 -3 4 -12 1 -19z m-31 -152 c-21 -49
-28 -46 -9 4 9 22 18 38 20 36 2 -2 -3 -20 -11 -40z m731 -39 c2 -12 5 -40 8
-62 l5 -40 -17 48 -17 49 -63 -7 c-70 -7 -143 1 -143 17 0 6 19 7 53 2 71 -11
98 -10 132 8 34 17 39 15 42 -15z m-79 12 c-12 -7 -24 -7 -35 0 -15 9 -12 10
17 10 29 0 32 -1 18 -10z m-1537 -576 c13 -16 12 -17 -3 -4 -16 12 -18 11 -18
-2 0 -9 5 -19 10 -22 6 -3 10 -20 10 -37 0 -27 2 -30 25 -24 19 5 23 3 19 -9
-4 -8 -1 -15 5 -15 6 0 8 -7 4 -17 -6 -15 -7 -15 -13 2 -4 10 -14 19 -24 21
-9 1 -24 8 -31 14 -21 17 -20 110 0 110 2 0 9 -8 16 -17z m45 -60 c-7 -7 -26
7 -26 19 0 6 6 6 15 -2 9 -7 13 -15 11 -17z m104 -23 c0 -5 -2 -10 -4 -10 -3
0 -8 5 -11 10 -3 6 -1 10 4 10 6 0 11 -4 11 -10z m-27 -17 c-7 -2 -21 -2 -30
0 -10 3 -4 5 12 5 17 0 24 -2 18 -5z m84 -123 c-1 -11 -7 -20 -14 -20 -7 0
-10 -6 -7 -14 6 -17 -31 -42 -73 -48 -42 -6 -32 9 12 18 19 3 40 13 47 21 11
14 10 15 -12 9 -21 -6 -20 -4 8 13 17 11 32 25 32 31 0 5 2 10 4 10 3 0 4 -9
3 -20z m-102 -30 c21 0 26 -3 18 -11 -13 -13 -83 16 -83 34 0 5 8 3 18 -6 10
-10 31 -17 47 -17z m165 -9 c0 -6 -4 -13 -10 -16 -5 -3 -10 1 -10 9 0 9 5 16
10 16 6 0 10 -4 10 -9z"/>
<path d="M2130 2836 c0 -2 7 -7 16 -10 8 -3 12 -2 9 4 -6 10 -25 14 -25 6z"/>
<path d="M1218 2809 c-69 -52 -86 -130 -41 -195 14 -21 30 -55 34 -74 22 -101
48 -160 70 -160 16 0 50 64 46 88 -3 12 0 25 4 28 5 3 9 23 9 44 0 31 8 47 35
77 34 37 39 53 35 103 -5 57 -59 117 -97 107 -15 -4 -15 -5 3 -6 11 0 30 -11
41 -23 52 -58 57 -111 14 -160 -38 -45 -51 -71 -51 -107 0 -30 -2 -31 -44 -31
-45 0 -56 10 -56 50 0 11 -13 39 -30 63 -16 25 -30 57 -30 72 0 45 30 94 74
120 22 14 34 25 26 25 -8 -1 -27 -10 -42 -21z"/>
<path d="M1235 2613 c4 -43 9 -80 11 -82 10 -11 11 9 3 69 -5 35 -7 70 -4 77
2 7 -1 13 -6 13 -8 0 -9 -24 -4 -77z"/>
<path d="M1302 2668 c-15 -20 -25 -125 -13 -133 7 -4 11 16 11 59 0 60 11 85
23 54 3 -7 4 -3 4 10 -1 25 -10 28 -25 10z"/>
<path d="M1341 2664 c0 -11 3 -14 6 -6 3 7 2 16 -1 19 -3 4 -6 -2 -5 -13z"/>
<path d="M2763 3665 c0 -33 2 -45 4 -27 2 18 2 45 0 60 -2 15 -4 0 -4 -33z"/>
<path d="M1674 3546 c1 -54 1 -54 -34 -65 -58 -17 -82 -46 -77 -93 2 -22 10
-44 18 -49 21 -13 86 -11 101 4 7 8 24 19 37 26 20 11 26 10 39 -3 15 -15 15
-16 -4 -16 -27 0 -74 -43 -74 -68 0 -10 5 -23 12 -30 6 -6 8 -15 4 -19 -4 -4
-12 0 -17 10 -17 30 -30 18 -14 -13 19 -37 54 -47 106 -30 21 7 42 10 46 7 3
-4 1 -7 -5 -7 -7 0 -12 -4 -12 -9 0 -6 12 -6 30 0 27 10 30 15 30 55 0 37 4
46 28 61 39 24 72 55 72 67 0 6 -7 0 -16 -12 -9 -13 -21 -21 -27 -19 -7 2 -24
-2 -39 -10 l-28 -13 7 32 c4 18 12 38 19 45 14 14 82 14 91 0 6 -10 23 11 23
30 0 17 -52 43 -85 43 -16 0 -38 -12 -56 -29 -26 -26 -29 -36 -29 -92 0 -73
-9 -68 -34 16 -13 42 -30 73 -58 102 -26 27 -39 47 -35 57 4 9 2 16 -3 16 -6
0 -10 7 -10 15 0 8 5 15 10 15 6 0 10 -6 10 -12 0 -7 17 -22 37 -33 20 -11 38
-26 41 -32 6 -22 -17 -14 -45 13 -14 14 -28 23 -31 19 -9 -8 88 -95 107 -95
15 0 71 61 71 77 -1 13 -34 49 -57 62 -12 6 -42 11 -67 11 -25 0 -48 5 -51 10
-3 6 -12 10 -19 10 -9 0 -12 -16 -12 -54z m91 14 c4 -6 11 -8 16 -5 20 13 47
-5 43 -28 -2 -12 -2 -16 2 -9 9 18 21 15 27 -8 4 -18 2 -20 -16 -14 -29 8
-107 57 -107 67 0 11 28 9 35 -3z m46 -83 c-1 -12 -15 -9 -19 4 -3 6 1 10 8 8
6 -3 11 -8 11 -12z m-85 -44 c-3 -8 -2 -11 3 -8 5 3 12 1 15 -4 3 -5 -3 -11
-14 -14 -11 -3 -22 -1 -25 3 -3 5 -18 2 -33 -6 -41 -21 -92 -19 -92 5 0 24 22
42 63 51 41 8 90 -7 83 -27z m234 -4 c0 -5 -13 -6 -29 -3 -16 3 -38 1 -50 -5
-22 -12 -29 -3 -11 15 11 11 90 6 90 -7z m-285 -59 c-19 -21 -60 -26 -83 -11
-9 5 -4 8 15 9 15 0 39 5 53 11 35 14 35 13 15 -9z m103 -52 c33 -33 2 -75
-43 -57 -18 7 -18 8 5 9 14 2 28 2 33 1 4 0 7 4 7 9 0 12 -4 12 -52 1 -29 -7
-38 -6 -38 4 0 20 21 33 71 44 3 0 10 -4 17 -11z m59 -85 c-3 -10 -5 -2 -5 17
0 19 2 27 5 18 2 -10 2 -26 0 -35z m-72 -8 c-16 -7 -36 -10 -45 -7 -10 5 -3 9
20 13 53 10 58 9 25 -6z"/>
<path d="M2713 3353 c-71 -114 -109 -199 -101 -224 2 -7 14 14 26 47 12 32 42
95 67 138 49 87 55 115 8 39z"/>
<path d="M3608 2913 c12 -2 32 -2 45 0 12 2 2 4 -23 4 -25 0 -35 -2 -22 -4z"/>
<path d="M3570 2759 c-36 -40 -70 -125 -70 -175 0 -65 54 -124 114 -124 38 0
32 17 -10 25 -54 10 -84 45 -84 97 0 65 16 110 56 157 43 50 38 68 -6 20z"/>
<path d="M980 2476 c0 -2 7 -7 16 -10 8 -3 12 -2 9 4 -6 10 -25 14 -25 6z"/>
<path d="M3178 2223 c7 -3 16 -2 19 1 4 3 -2 6 -13 5 -11 0 -14 -3 -6 -6z"/>
<path d="M1602 2168 c11 -53 14 -55 39 -40 11 7 30 10 42 7 12 -4 3 5 -19 19
-23 14 -44 33 -48 41 -12 34 -24 13 -14 -27z"/>
<path d="M1985 2155 c-49 -7 -111 -14 -137 -14 -26 -1 -50 -6 -53 -11 -4 -6
-23 -7 -46 -4 -47 8 -52 -2 -6 -15 19 -5 24 -9 12 -10 -11 0 -38 6 -60 14 -54
19 -57 11 -3 -9 41 -16 51 -16 211 9 92 14 207 26 255 26 76 1 82 2 47 10 -72
17 -128 18 -220 4z"/>
<path d="M970 2096 c0 -2 8 -10 18 -17 15 -13 16 -12 3 4 -13 16 -21 21 -21
13z"/>
<path d="M3203 1975 c44 -165 89 -318 102 -349 13 -31 14 -44 5 -61 -6 -12
-17 -22 -23 -22 -7 0 -55 -26 -107 -57 -52 -30 -98 -56 -103 -56 -4 0 -25 -11
-48 -25 -22 -15 -45 -22 -52 -18 -7 4 -66 55 -132 113 -66 58 -146 121 -177
140 -32 19 -60 41 -62 48 -6 15 23 16 60 2 49 -19 197 48 287 129 44 40 29 73
-16 34 -11 -10 -17 -12 -13 -5 11 19 -118 5 -171 -19 -46 -21 -104 -25 -132
-9 -19 10 -152 27 -260 34 -53 3 -67 1 -84 -15 -12 -10 -28 -19 -37 -19 -9 0
-34 -25 -55 -56 -21 -30 -66 -84 -99 -119 -53 -56 -66 -64 -101 -66 -23 -2
-47 1 -55 6 -9 5 -11 4 -6 -3 4 -7 3 -12 -3 -12 -5 0 -14 8 -20 17 -5 10 -13
14 -18 10 -4 -5 3 -17 16 -28 32 -26 95 -24 156 5 65 31 95 64 140 159 24 49
43 77 54 77 10 0 12 -3 5 -8 -6 -4 -21 -27 -33 -52 -21 -43 -21 -44 -2 -20 11
14 23 33 27 43 3 9 11 17 17 17 7 1 62 2 123 3 l111 2 33 -48 c43 -62 186
-191 201 -181 7 4 9 3 6 -4 -8 -12 138 -138 159 -136 7 1 11 -2 9 -7 -3 -4 16
-22 41 -40 41 -28 51 -31 74 -22 38 14 71 -5 86 -51 8 -21 9 -36 3 -36 -5 0
-9 -5 -9 -12 0 -7 -12 -25 -27 -40 -30 -32 -76 -36 -174 -18 -67 13 -87 27
-239 170 -124 116 -140 129 -140 112 0 -10 105 -108 273 -252 29 -25 37 -39
37 -66 0 -28 -6 -38 -32 -54 -18 -11 -44 -20 -59 -20 -25 0 -110 48 -123 69
-4 6 -12 9 -17 5 -5 -3 -8 -2 -7 3 3 11 -171 178 -178 170 -9 -8 36 -68 46
-62 12 7 100 -96 93 -108 -3 -6 -2 -7 4 -4 6 4 27 -8 48 -26 37 -32 38 -33 25
-71 -15 -47 -45 -59 -127 -53 -35 3 -63 1 -63 -4 0 -5 -11 -16 -25 -25 -34
-22 -121 -11 -128 17 -7 24 -24 25 -32 0 -15 -48 -111 -44 -134 5 -13 29 -4
85 10 62 6 -9 9 -6 10 12 1 14 1 28 0 32 0 4 8 12 20 18 17 10 26 6 60 -28 37
-38 39 -39 39 -15 0 27 -52 80 -86 89 -12 3 -27 17 -33 30 -15 34 -14 42 4 18
8 -10 15 -14 15 -8 0 15 -67 74 -83 74 -7 0 -4 -5 6 -11 15 -9 68 -109 67
-128 0 -3 -19 -26 -40 -50 -31 -33 -45 -42 -62 -38 -12 4 -29 1 -37 -6 -12 -9
-13 -9 -7 1 4 6 3 12 -2 12 -16 0 -34 58 -30 94 3 24 0 32 -9 29 -7 -3 -13 0
-13 6 0 6 5 11 10 11 6 0 10 7 10 15 0 8 17 22 38 31 20 9 31 18 25 21 -7 3
-13 12 -13 21 0 12 -3 13 -8 5 -10 -16 -46 42 -38 62 6 18 -38 65 -61 64 -17
-1 -17 -2 0 -6 9 -2 17 -12 17 -21 0 -9 9 -30 19 -46 11 -16 17 -35 14 -43 -3
-7 -1 -19 5 -26 7 -9 1 -19 -23 -37 -19 -14 -39 -35 -46 -47 -6 -12 -20 -24
-31 -26 -23 -7 -86 26 -110 56 -9 12 -20 19 -23 15 -10 -9 30 -49 88 -87 34
-23 56 -31 80 -29 29 3 34 -1 49 -35 19 -41 74 -73 108 -62 13 4 24 -5 44 -40
35 -59 66 -79 112 -72 20 3 43 12 51 19 9 7 36 13 62 14 36 2 40 0 21 -6 -24
-8 -24 -8 7 -9 22 -1 43 8 65 28 31 27 37 28 103 24 l71 -5 31 35 c17 19 33
41 35 48 3 10 11 10 37 1 18 -7 36 -10 40 -7 4 2 21 6 37 9 30 5 94 68 94 92
0 9 16 13 50 12 30 -1 45 -5 38 -10 -8 -5 0 -8 21 -8 52 0 117 35 132 71 14
36 20 91 7 83 -4 -3 -8 2 -8 10 0 8 -12 24 -26 35 -15 12 -22 21 -17 21 5 0
34 15 65 34 44 26 58 31 62 20 3 -8 1 -14 -4 -14 -6 0 -10 -6 -10 -14 0 -7
-14 -28 -32 -45 -21 -20 -27 -31 -17 -31 33 0 85 82 73 115 -4 8 -1 15 6 15 6
0 9 4 5 10 -7 11 50 42 60 32 3 -4 6 -2 5 3 -6 27 0 37 14 26 11 -9 17 -8 28
6 7 10 20 20 28 21 8 2 41 12 73 22 31 10 59 15 61 11 2 -3 7 -22 11 -41 14
-72 14 -73 48 -65 18 3 59 8 92 9 33 2 80 9 105 15 25 6 72 11 105 11 33 1 87
7 120 15 l60 13 -65 1 c-36 0 -99 -4 -140 -10 -108 -14 -198 -22 -250 -23 -44
-1 -45 0 -61 44 -19 49 -16 48 -110 36 l-56 -8 -21 44 c-11 23 -30 85 -42 137
-28 118 -54 200 -70 214 -10 9 -12 8 -7 -8z m-307 -164 c-9 -10 -43 -28 -74
-40 -127 -49 -212 -48 -265 2 -18 17 -36 30 -40 29 -5 -1 -6 2 -2 8 4 6 22 -2
44 -20 31 -25 44 -30 67 -24 16 4 45 8 64 10 102 9 192 33 205 54 4 6 10 9 13
6 3 -3 -2 -14 -12 -25z m-395 10 c-13 -8 -222 -4 -230 5 -3 3 50 4 118 3 68 0
118 -4 112 -8z m370 -368 c13 -16 12 -17 -3 -4 -17 13 -22 21 -14 21 2 0 10
-8 17 -17z m185 -58 c-20 -15 -36 -19 -36 -10 0 5 38 23 50 24 3 0 -4 -6 -14
-14z m-186 -201 c0 -3 -7 -12 -15 -20 -13 -14 -15 -13 -15 5 0 12 6 21 15 21
8 0 15 -3 15 -6z m-913 -46 c-3 -8 -6 -5 -6 6 -1 11 2 17 5 13 3 -3 4 -12 1
-19z m273 -198 c-24 -15 -36 -11 -14 4 10 8 21 12 24 10 2 -3 -2 -9 -10 -14z"/>
<path d="M3361 1973 c-2 -25 108 -327 115 -320 6 5 -40 147 -57 179 -7 13 -23
52 -35 88 -13 36 -23 59 -23 53z"/>
<path d="M2223 1897 c-24 -11 -43 -24 -43 -27 0 -10 74 -6 82 5 4 5 23 8 41 7
41 -4 56 12 28 27 -29 16 -61 12 -108 -12z"/>
<path d="M2738 1853 c7 -3 16 -2 19 1 4 3 -2 6 -13 5 -11 0 -14 -3 -6 -6z"/>
<path d="M2012 1679 c-23 -22 -42 -43 -42 -46 0 -3 -8 -12 -17 -19 -16 -12
-13 -13 22 -14 30 0 36 3 25 10 -13 9 -13 12 2 24 10 7 15 16 11 19 -3 4 0 7
8 7 8 0 20 14 26 30 6 17 10 30 9 30 -2 0 -22 -18 -44 -41z"/>
<path d="M3622 1664 c-27 -18 -28 -36 -4 -57 24 -22 44 -21 71 2 25 22 26 29
4 54 -20 21 -42 22 -71 1z m65 -20 c4 -11 -1 -22 -12 -30 -23 -17 -27 -17 -50
0 -16 12 -17 16 -6 30 17 21 60 21 68 0z"/>
<path d="M3645 1620 c3 -5 8 -10 11 -10 2 0 4 5 4 10 0 6 -5 10 -11 10 -5 0
-7 -4 -4 -10z"/>
<path d="M3280 1580 c-14 -4 -37 -5 -51 -3 -18 4 -40 -5 -73 -29 -41 -28 -45
-34 -27 -36 12 -2 18 -8 15 -14 -7 -11 142 66 161 83 10 10 10 10 -25 -1z"/>
<path d="M1850 1411 c0 -5 9 -7 20 -4 11 3 20 7 20 9 0 2 -9 4 -20 4 -11 0
-20 -4 -20 -9z"/>
<path d="M2354 1112 c33 -34 62 -59 64 -57 7 7 -16 31 -72 77 l-51 42 59 -62z"/>
</g>
</svg>
